<?xml version="1.0" encoding="utf-8"?>
<!-- Generator: Adobe Illustrator 24.1.0, SVG Export Plug-In . SVG Version: 6.00 Build 0)  -->
<svg version="1.1" id="Layer_1" xmlns="http://www.w3.org/2000/svg" xmlns:xlink="http://www.w3.org/1999/xlink" x="0px" y="0px"
	 viewBox="0 0 24 24" style="enable-background:new 0 0 24 24;" xml:space="preserve">
<style type="text/css">
	.st0{fill:#59595A;}
	.st1{fill:#05B1D8;}
</style>
<g>
	<path class="st0" d="M2.5,12C2.5,6,7.1,1.5,13,1.5c3.7,0,6.3,1.3,8.2,4.2L17.9,8c-1-1.6-2.6-2.7-4.9-2.7c-3.7,0-6.2,2.8-6.2,6.7
		c0,3.8,2.5,6.7,6.2,6.7c2.6,0,4.1-1.3,5.3-3l3.3,2.3c-1.8,2.8-4.6,4.5-8.5,4.5C7.1,22.5,2.5,18,2.5,12z"/>
	<g>
		<polygon class="st1" points="10.5,7.8 17,12 10.5,15.9 		"/>
	</g>
</g>
</svg>
