<?xml version="1.0" encoding="utf-8"?>
<!-- Generator: Adobe Illustrator 24.1.0, SVG Export Plug-In . SVG Version: 6.00 Build 0)  -->
<svg version="1.1" id="Layer_1" xmlns="http://www.w3.org/2000/svg" xmlns:xlink="http://www.w3.org/1999/xlink" x="0px" y="0px"
	 viewBox="0 0 727 178" style="enable-background:new 0 0 727 178;" xml:space="preserve">
<style type="text/css">
	.st0{clip-path:url(#SVGID_2_);}
	.st1{clip-path:url(#SVGID_4_);fill:#EB9D96;}
	.st2{fill:#59595A;}
	.st3{opacity:0.7;fill:#59595A;enable-background:new    ;}
	.st4{fill:#05B1D8;}
</style>
<g>
	<defs>
		<circle id="SVGID_1_" cx="261.5" cy="-296" r="70"/>
	</defs>
	<clipPath id="SVGID_2_">
		<use xlink:href="#SVGID_1_"  style="overflow:visible;"/>
	</clipPath>
	<g class="st0">
		<defs>
			<rect id="SVGID_3_" x="-395.5" y="-1145" width="1440" height="2947"/>
		</defs>
		<clipPath id="SVGID_4_">
			<use xlink:href="#SVGID_3_"  style="overflow:visible;"/>
		</clipPath>
	</g>
</g>
<g>
	<path class="st2" d="M17.8,89.2c0-27.6,21.3-47.7,48-47.7c16.9,0,29,6,37.3,19.1L88.5,71c-4.4-7.1-11.9-12.2-22.6-12.2
		c-16.9,0-28.3,13-28.3,30.4c0,17.4,11.4,30.8,28.3,30.8c12.1,0,18.8-5.8,24-13.7l15,10.3c-8.1,12.6-21,20.6-39,20.6
		C39.1,137.1,17.8,116.8,17.8,89.2z"/>
	<path class="st3" d="M607,41.5c-26.8,0-48,20.2-48,47.7c0,27.6,21.3,47.9,48,47.9s48-20.3,48-47.9C655.1,61.7,633.8,41.5,607,41.5z
		 M607.1,120c-16.9,0-28.3-13.3-28.3-30.8c0-17.4,11.4-30.4,28.3-30.4c16.9,0,28.3,13,28.3,30.4C635.3,106.7,623.9,120,607.1,120z"
		/>
	<path class="st2" d="M183.5,41.8l1.6,0l42.7,94.1l-20.2,0l-4.4-10.6l-37.9,0l-4.4,10.6l-18.5,0L183.5,41.8z M196.4,109.3l-6.7-16.2
		c-2.8-6.6-5.6-16.7-5.6-16.7s-2.7,10.2-5.5,16.7l-6.7,16.2H196.4z"/>
	<path class="st2" d="M266,117.5l15.6-9.1c4.1,6.7,9.5,11.7,18.9,11.7c8,0,13-4,13-9.5c0-6.6-5.2-8.9-14-12.8l-4.8-2.1
		c-13.9-5.9-23.1-13.3-23.1-29c0-14.4,11-25.4,28.1-25.4c12.2,0,21,4.3,27.3,15.4l-15,9.6c-3.3-5.9-6.8-8.2-12.3-8.2
		c-5.6,0-9.2,3.6-9.2,8.2c0,5.8,3.6,8.1,11.8,11.7l4.8,2.1c16.3,7,25.5,14.1,25.5,30.2c0,17.3-13.6,26.8-31.8,26.8
		C283.2,137.1,271.7,128.6,266,117.5z"/>
	<path class="st2" d="M400.7,59.5l-26.6,0V42.6l72.4,0l0,16.9l-26.6,0l0,76.4l-19.2,0L400.7,59.5z"/>
	<path class="st3" d="M495.2,42.6l19.2,0l0,93.3l-19.2,0L495.2,42.6L495.2,42.6z"/>
	<g>
		<polygon class="st4" points="679.4,70.3 709.2,88.8 679.4,107.4 		"/>
	</g>
</g>
</svg>
